<svg width="28" height="33" viewBox="0 0 28 33" fill="none" xmlns="http://www.w3.org/2000/svg">
<g clip-path="url(#clip0_1128_8168)">
<path d="M10.2064 29.9045H8.75072C8.60445 29.9044 8.46053 29.8611 8.33212 29.7786C8.2037 29.6961 8.09489 29.5769 8.01564 29.432C7.93638 29.2871 7.88921 29.1211 7.87844 28.9492C7.86766 28.7773 7.89363 28.6049 7.95397 28.4479L11.4789 19.28L6.18602 19.1414L4.25566 21.8979C3.88764 22.4431 3.59398 22.6861 2.8448 22.6861H1.86486C1.7097 22.692 1.55563 22.6537 1.4157 22.5745C1.27577 22.4953 1.1541 22.3775 1.061 22.2311C0.93085 22.0242 0.802889 21.6736 0.927569 21.1735L2.01141 16.5976C2.01962 16.5634 2.02946 16.5293 2.0404 16.4957C2.04094 16.4926 2.04094 16.4893 2.0404 16.4861C2.0291 16.4526 2.01943 16.4184 2.01141 16.3836L0.926475 11.7787C0.808904 11.2882 0.937412 10.9454 1.06647 10.7436C1.15313 10.6081 1.26556 10.4984 1.39473 10.4234C1.5239 10.3484 1.66619 10.3102 1.81018 10.3118H2.8448C3.40423 10.3118 3.94724 10.6076 4.2666 11.0852L6.15704 13.7953L11.4789 13.7025L7.95506 4.55068C7.89464 4.39371 7.86857 4.2214 7.87923 4.0495C7.8899 3.87759 7.93695 3.71158 8.01609 3.56664C8.09523 3.42169 8.20394 3.30244 8.33227 3.21978C8.46061 3.13713 8.60447 3.0937 8.75072 3.09348H10.2223C10.4276 3.09834 10.6293 3.15764 10.8125 3.26699C10.9957 3.37633 11.1556 3.5329 11.2804 3.72508L18.1187 13.5214L21.2778 13.4234C21.5091 13.4086 22.15 13.4035 22.2982 13.4035C25.3201 13.4054 27.1247 14.5616 27.1247 16.499C27.1247 17.1087 26.918 18.2391 25.535 18.9584C24.7186 19.3837 23.6293 19.599 22.2971 19.599C22.1506 19.599 21.5113 19.5938 21.2767 19.579L18.1182 19.4798L11.2629 29.2761C11.138 29.4674 10.9782 29.6232 10.7954 29.732C10.6125 29.8408 10.4112 29.8997 10.2064 29.9045Z" fill="white"/>
</g>
<defs>
<clipPath id="clip0_1128_8168">
<rect width="27.6938" height="32.6391" fill="white" transform="scale(1.011)"/>
</clipPath>
</defs>
</svg>
