<svg width="22" height="22" viewBox="0 0 22 22" fill="none" xmlns="http://www.w3.org/2000/svg">
<g clip-path="url(#clip0_1129_6972)">
<path d="M21.6719 4.52587C20.9066 4.86501 20.0844 5.09416 19.22 5.19773C20.1119 4.66408 20.7791 3.82418 21.0972 2.83475C20.2593 3.33245 19.3423 3.68278 18.3859 3.8705C17.7428 3.18385 16.891 2.72872 15.9628 2.57578C15.0345 2.42285 14.0817 2.58066 13.2523 3.02471C12.4229 3.46877 11.7633 4.17423 11.3759 5.03156C10.9886 5.88889 10.8951 6.85013 11.11 7.76604C9.41216 7.68079 7.75123 7.2395 6.235 6.4708C4.71876 5.7021 3.38109 4.62317 2.30882 3.30404C1.94218 3.9365 1.73136 4.66977 1.73136 5.45071C1.73096 6.15374 1.90408 6.846 2.23538 7.46607C2.56668 8.08613 3.04591 8.61484 3.63055 9.00528C2.95252 8.9837 2.28946 8.8005 1.69653 8.4709V8.5259C1.69647 9.51192 2.03754 10.4676 2.66188 11.2308C3.28622 11.9939 4.15537 12.5176 5.12186 12.7129C4.49287 12.8831 3.83343 12.9082 3.19334 12.7862C3.46602 13.6347 3.99719 14.3766 4.71247 14.9081C5.42776 15.4396 6.29136 15.7342 7.18237 15.7505C5.66983 16.9379 3.80185 17.582 1.87894 17.5791C1.53831 17.5792 1.19797 17.5593 0.85968 17.5195C2.81155 18.7745 5.08367 19.4406 7.40418 19.438C15.2594 19.438 19.5537 12.932 19.5537 7.28941C19.5537 7.10609 19.5491 6.92094 19.5408 6.73762C20.3761 6.13356 21.0971 5.38554 21.6701 4.52862L21.6719 4.52587Z" fill="#112211"/>
</g>
<defs>
<clipPath id="clip0_1129_6972">
<rect width="21.9905" height="21.9905" fill="white" transform="scale(1.00036)"/>
</clipPath>
</defs>
</svg>
