<svg width="22" height="22" viewBox="0 0 22 22" fill="none" xmlns="http://www.w3.org/2000/svg">
<path d="M10.445 8.26888C8.72824 8.26888 7.32724 9.66988 7.32724 11.3866C7.32724 13.1034 8.72824 14.5044 10.445 14.5044C12.1618 14.5044 13.5628 13.1034 13.5628 11.3866C13.5628 9.66988 12.1618 8.26888 10.445 8.26888ZM19.7959 11.3866C19.7959 10.0956 19.8076 8.81618 19.7351 7.52745C19.6626 6.03055 19.3211 4.70205 18.2265 3.60744C17.1296 2.5105 15.8034 2.17136 14.3065 2.09885C13.0155 2.02635 11.7361 2.03804 10.4473 2.03804C9.15626 2.03804 7.87688 2.02635 6.58815 2.09885C5.09125 2.17136 3.76275 2.51284 2.66815 3.60744C1.5712 4.70439 1.23206 6.03055 1.15955 7.52745C1.08705 8.81852 1.09874 10.0979 1.09874 11.3866C1.09874 12.6754 1.08705 13.9571 1.15955 15.2458C1.23206 16.7427 1.57354 18.0712 2.66815 19.1658C3.76509 20.2628 5.09125 20.6019 6.58815 20.6744C7.87922 20.7469 9.1586 20.7352 10.4473 20.7352C11.7384 20.7352 13.0178 20.7469 14.3065 20.6744C15.8034 20.6019 17.1319 20.2604 18.2265 19.1658C19.3235 18.0689 19.6626 16.7427 19.7351 15.2458C19.81 13.9571 19.7959 12.6777 19.7959 11.3866ZM10.445 16.1837C7.79034 16.1837 5.64791 14.0413 5.64791 11.3866C5.64791 8.73198 7.79034 6.58955 10.445 6.58955C13.0997 6.58955 15.2421 8.73198 15.2421 11.3866C15.2421 14.0413 13.0997 16.1837 10.445 16.1837ZM15.4386 7.51341C14.8187 7.51341 14.3182 7.01289 14.3182 6.39308C14.3182 5.77327 14.8187 5.27274 15.4386 5.27274C16.0584 5.27274 16.5589 5.77327 16.5589 6.39308C16.5591 6.54025 16.5302 6.68602 16.474 6.82203C16.4178 6.95804 16.3352 7.08162 16.2312 7.18569C16.1271 7.28976 16.0035 7.37227 15.8675 7.42851C15.7315 7.48475 15.5857 7.5136 15.4386 7.51341Z" fill="#112211"/>
</svg>
