<svg width="27" height="27" viewBox="0 0 27 27" fill="none" xmlns="http://www.w3.org/2000/svg">
<path d="M22.7792 12.1654C22.2473 11.9319 21.6727 11.8116 21.0918 11.8121H5.90486C5.32401 11.8115 4.74939 11.9317 4.21742 12.1649C3.46556 12.4937 2.82577 13.0344 2.37626 13.7209C1.92675 14.4075 1.68698 15.2101 1.68626 16.0307V21.9367C1.68626 22.1605 1.77515 22.3751 1.93338 22.5333C2.09161 22.6916 2.30621 22.7804 2.52998 22.7804C2.75375 22.7804 2.96835 22.6916 3.12658 22.5333C3.28481 22.3751 3.3737 22.1605 3.3737 21.9367V21.5149C3.37507 21.4034 3.41995 21.2969 3.49877 21.2181C3.57759 21.1393 3.6841 21.0944 3.79556 21.093H23.2011C23.3126 21.0944 23.4191 21.1393 23.4979 21.2181C23.5767 21.2969 23.6216 21.4034 23.623 21.5149V21.9367C23.623 22.1605 23.7118 22.3751 23.8701 22.5333C24.0283 22.6916 24.2429 22.7804 24.4667 22.7804C24.6904 22.7804 24.905 22.6916 25.0633 22.5333C25.2215 22.3751 25.3104 22.1605 25.3104 21.9367V16.0307C25.3096 15.2102 25.0698 14.4077 24.6202 13.7212C24.1707 13.0348 23.531 12.4942 22.7792 12.1654ZM19.8262 4.21863H7.17043C6.38724 4.21863 5.63613 4.52975 5.08234 5.08354C4.52854 5.63734 4.21742 6.38845 4.21742 7.17164V10.9684C4.21744 11.0011 4.22506 11.0333 4.23968 11.0625C4.25429 11.0918 4.2755 11.1172 4.30163 11.1368C4.32776 11.1565 4.3581 11.1698 4.39025 11.1757C4.4224 11.1816 4.45548 11.1799 4.48688 11.1709C4.94748 11.0362 5.42496 10.968 5.90486 10.9684H6.12791C6.17998 10.9687 6.23032 10.9498 6.26926 10.9152C6.3082 10.8807 6.33299 10.8329 6.33884 10.7812C6.38486 10.3689 6.58113 9.98804 6.89016 9.7113C7.19919 9.43457 7.59933 9.28136 8.01415 9.28094H10.9672C11.3823 9.28097 11.7828 9.43401 12.0922 9.71078C12.4015 9.98755 12.598 10.3686 12.6441 10.7812C12.6499 10.8329 12.6747 10.8807 12.7136 10.9152C12.7526 10.9498 12.8029 10.9687 12.855 10.9684H14.1448C14.1969 10.9687 14.2472 10.9498 14.2862 10.9152C14.3251 10.8807 14.3499 10.8329 14.3558 10.7812C14.4017 10.3692 14.5978 9.98853 14.9065 9.71183C15.2152 9.43513 15.6149 9.28175 16.0295 9.28094H18.9825C19.3976 9.28097 19.7981 9.43401 20.1075 9.71078C20.4168 9.98755 20.6133 10.3686 20.6594 10.7812C20.6652 10.8329 20.69 10.8807 20.729 10.9152C20.7679 10.9498 20.8183 10.9687 20.8703 10.9684H21.0918C21.5717 10.9681 22.0492 11.0365 22.5098 11.1714C22.5412 11.1805 22.5743 11.1821 22.6065 11.1762C22.6387 11.1703 22.6691 11.1569 22.6952 11.1372C22.7214 11.1175 22.7426 11.092 22.7572 11.0627C22.7717 11.0334 22.7793 11.0011 22.7792 10.9684V7.17164C22.7792 6.38845 22.4681 5.63734 21.9143 5.08354C21.3605 4.52975 20.6094 4.21863 19.8262 4.21863Z" fill="white"/>
</svg>
