<svg width="31" height="31" viewBox="0 0 31 31" fill="none" xmlns="http://www.w3.org/2000/svg">
<path d="M26.1534 13.9674C25.5427 13.6993 24.8829 13.5612 24.216 13.5617H6.7795C6.11262 13.5611 5.45288 13.699 4.84211 13.9668C3.97889 14.3443 3.24434 14.9651 2.72824 15.7533C2.21214 16.5415 1.93686 17.463 1.93603 18.4052V25.1861C1.93603 25.443 2.03809 25.6894 2.21976 25.871C2.40142 26.0527 2.64781 26.1547 2.90473 26.1547C3.16164 26.1547 3.40803 26.0527 3.5897 25.871C3.77136 25.6894 3.87342 25.443 3.87342 25.1861V24.7017C3.87499 24.5737 3.92652 24.4515 4.01702 24.361C4.10751 24.2705 4.2298 24.2189 4.35777 24.2174H26.6377C26.7657 24.2189 26.888 24.2705 26.9784 24.361C27.0689 24.4515 27.1205 24.5737 27.122 24.7017V25.1861C27.122 25.443 27.2241 25.6894 27.4058 25.871C27.5874 26.0527 27.8338 26.1547 28.0907 26.1547C28.3477 26.1547 28.594 26.0527 28.7757 25.871C28.9574 25.6894 29.0594 25.443 29.0594 25.1861V18.4052C29.0585 17.4632 28.7831 16.5418 28.2671 15.7537C27.751 14.9655 27.0165 14.3448 26.1534 13.9674ZM22.7629 4.84351H8.23254C7.33334 4.84351 6.47097 5.20071 5.83514 5.83654C5.19932 6.47237 4.84211 7.33473 4.84211 8.23393V12.593C4.84214 12.6306 4.85089 12.6676 4.86767 12.7012C4.88445 12.7347 4.9088 12.7639 4.9388 12.7865C4.9688 12.809 5.00363 12.8243 5.04054 12.8311C5.07745 12.8378 5.11543 12.8359 5.15149 12.8255C5.68031 12.6709 6.22852 12.5926 6.7795 12.593H7.0356C7.09537 12.5934 7.15317 12.5717 7.19788 12.532C7.24259 12.4923 7.27104 12.4375 7.27777 12.3781C7.3306 11.9048 7.55594 11.4675 7.91075 11.1498C8.26555 10.832 8.72496 10.6561 9.20123 10.6557H12.5917C13.0682 10.6557 13.5281 10.8314 13.8833 11.1492C14.2385 11.4669 14.4641 11.9045 14.5169 12.3781C14.5237 12.4375 14.5521 12.4923 14.5968 12.532C14.6415 12.5717 14.6993 12.5934 14.7591 12.593H16.24C16.2998 12.5934 16.3576 12.5717 16.4023 12.532C16.447 12.4923 16.4754 12.4375 16.4822 12.3781C16.535 11.9051 16.76 11.4681 17.1145 11.1504C17.4689 10.8327 17.9279 10.6566 18.4038 10.6557H21.7942C22.2708 10.6557 22.7307 10.8314 23.0859 11.1492C23.441 11.4669 23.6666 11.9045 23.7195 12.3781C23.7262 12.4375 23.7547 12.4923 23.7994 12.532C23.8441 12.5717 23.9019 12.5934 23.9617 12.593H24.216C24.767 12.5928 25.3152 12.6713 25.844 12.8261C25.8801 12.8366 25.9181 12.8385 25.9551 12.8316C25.992 12.8248 26.0269 12.8095 26.0569 12.7869C26.0869 12.7643 26.1113 12.735 26.128 12.7014C26.1447 12.6677 26.1534 12.6306 26.1534 12.593V8.23393C26.1534 7.33473 25.7961 6.47237 25.1603 5.83654C24.5245 5.20071 23.6621 4.84351 22.7629 4.84351Z" fill="#030303"/>
</svg>
