<svg width="24" height="24" viewBox="0 0 24 24" fill="none" xmlns="http://www.w3.org/2000/svg">
<path d="M18.4707 22.5002C18.3128 22.5008 18.1588 22.4516 18.0305 22.3596L12.0019 17.989L5.97334 22.3596C5.84454 22.453 5.68938 22.5031 5.53027 22.5025C5.37116 22.5019 5.21636 22.4507 5.08825 22.3564C4.96013 22.262 4.86534 22.1294 4.81758 21.9776C4.76982 21.8258 4.77156 21.6628 4.82256 21.5121L7.17381 14.5479L1.08006 10.369C0.948066 10.2786 0.848444 10.1483 0.79575 9.99724C0.743057 9.84617 0.740053 9.68221 0.787178 9.52932C0.834304 9.37642 0.929088 9.2426 1.05768 9.14741C1.18628 9.05222 1.34194 9.00065 1.50194 9.00023H9.01975L11.2885 2.0182C11.3374 1.86746 11.4327 1.73607 11.5609 1.64289C11.6891 1.5497 11.8435 1.49951 12.0019 1.49951C12.1604 1.49951 12.3148 1.5497 12.443 1.64289C12.5711 1.73607 12.6665 1.86746 12.7154 2.0182L14.9841 9.00257H22.5019C22.6621 9.00249 22.8181 9.05371 22.9471 9.14871C23.0761 9.24372 23.1713 9.37753 23.2187 9.53054C23.2661 9.68355 23.2633 9.84773 23.2107 9.99903C23.158 10.1503 23.0583 10.2808 22.9262 10.3713L16.8301 14.5479L19.1799 21.5102C19.218 21.6229 19.2287 21.7431 19.2111 21.8608C19.1936 21.9785 19.1483 22.0903 19.079 22.187C19.0097 22.2837 18.9184 22.3626 18.8127 22.417C18.7069 22.4715 18.5897 22.5 18.4707 22.5002Z" fill="#FFC107"/>
</svg>
